<svg xmlns="http://www.w3.org/2000/svg" viewBox="0 0 26 46" width="26" height="46"><style>tspan { white-space:pre }.shp0 { fill: #ff0000 } </style><path fill-rule="evenodd" class="shp0" d="M17.58 3.07C17.58 3.49 17.24 3.83 16.81 3.83L9.17 3.83C8.75 3.83 8.41 3.49 8.41 3.07C8.41 2.64 8.75 2.3 9.17 2.3L16.81 2.3C17.24 2.3 17.58 2.64 17.58 3.07ZM22.93 3.07C22.93 3.49 22.59 3.83 22.16 3.83L21.4 3.83C20.98 3.83 20.64 3.49 20.64 3.07C20.64 2.64 20.98 2.3 21.4 2.3L22.16 2.3C22.59 2.3 22.93 2.64 22.93 3.07ZM16.05 41.21L16.05 41.59C16.05 42.75 15.1 43.7 13.94 43.7L12.04 43.7C10.88 43.7 9.93 42.75 9.93 41.59L9.93 41.21C9.93 40.05 10.88 39.1 12.04 39.1L13.94 39.1C15.1 39.1 16.05 40.05 16.05 41.21ZM14.52 41.21C14.52 40.89 14.26 40.63 13.94 40.63L12.04 40.63C11.72 40.63 11.46 40.89 11.46 41.21L11.46 41.59C11.46 41.91 11.72 42.17 12.04 42.17L13.94 42.17C14.26 42.17 14.52 41.91 14.52 41.59L14.52 41.21Z" /><path fill-rule="evenodd" class="shp0" d="M25.98 2.77L25.98 43.23C25.98 44.76 24.74 46 23.22 46L2.76 46C1.24 46 0 44.76 0 43.23L0 2.77C0 1.24 1.24 0 2.76 0L23.22 0C24.74 0 25.98 1.24 25.98 2.77ZM24.46 2.77C24.46 2.09 23.9 1.53 23.22 1.53L2.76 1.53C2.08 1.53 1.53 2.09 1.53 2.77L1.53 43.23C1.53 43.91 2.08 44.47 2.76 44.47L23.22 44.47C23.9 44.47 24.46 43.91 24.46 43.23L24.46 2.77Z" /><path fill-rule="evenodd" class="shp0" d="M25.98 5.37L25.98 37.57C25.98 37.99 25.64 38.33 25.22 38.33L0.76 38.33C0.34 38.33 0 37.99 0 37.57L0 5.37C0 4.94 0.34 4.6 0.76 4.6L25.22 4.6C25.64 4.6 25.98 4.94 25.98 5.37ZM24.46 6.13L1.53 6.13L1.53 36.8L24.46 36.8L24.46 6.13Z" /></svg>