<svg xmlns="http://www.w3.org/2000/svg" viewBox="0 0 50 46" width="50" height="46"><style>tspan { white-space:pre }.shp0 { fill: #ff0000 } </style><path fill-rule="evenodd" class="shp0" d="M50 6.02L50 20.11C50 23.45 47.35 26.16 44.05 26.16L27.97 26.16C27.66 26.16 27.4 26.15 27.18 26.15C26.95 26.14 26.7 26.14 26.6 26.15C26.5 26.22 26.24 26.46 26 26.69C25.9 26.78 25.79 26.88 25.67 26.99L21.12 31.17C20.76 31.51 20.22 31.59 19.77 31.39C19.32 31.19 19.01 30.74 19.01 30.25L19.01 16.97L6.02 16.97C4.08 16.97 2.48 18.58 2.48 20.53L2.48 34.63C2.48 36.58 4.09 38.12 6.02 38.12L23.98 38.12C24.29 38.12 24.58 38.26 24.81 38.47L28.51 41.92L28.51 30.02C28.51 29.33 29.07 28.77 29.75 28.77C30.44 28.77 30.99 29.33 30.99 30.02L30.99 44.76C30.99 45.26 30.71 45.7 30.26 45.9C30.1 45.97 29.94 46 29.77 46C29.47 46 29.17 45.87 28.93 45.66L23.5 40.62L6.02 40.62C2.72 40.62 0 37.96 0 34.63L0 20.53C0 17.2 2.72 14.47 6.02 14.47L19.01 14.47L19.01 6.02C19.01 2.68 21.75 0 25.05 0L44.05 0C47.35 0 50 2.68 50 6.02ZM47.52 6.02C47.52 4.06 45.98 2.51 44.05 2.51L25.05 2.51C23.11 2.51 21.49 4.06 21.49 6.02L21.49 27.41L23.98 25.14C24.1 25.03 24.22 24.93 24.32 24.84C25.46 23.78 25.75 23.62 27.23 23.65C27.44 23.65 27.68 23.65 27.97 23.65L44.05 23.65C45.98 23.65 47.52 22.07 47.52 20.11L47.52 6.02ZM13.69 26.02C14.38 26.02 14.93 26.58 14.93 27.27C14.93 27.96 14.38 28.52 13.69 28.52L13.59 28.52C12.91 28.52 12.35 27.96 12.35 27.27C12.35 26.58 12.91 26.02 13.59 26.02L13.69 26.02ZM9.39 26.02C10.07 26.02 10.63 26.58 10.63 27.27C10.63 27.96 10.07 28.52 9.39 28.52L9.28 28.52C8.6 28.52 8.04 27.96 8.04 27.27C8.04 26.58 8.6 26.02 9.28 26.02L9.39 26.02ZM35.51 18.55C35.51 19.24 34.95 19.8 34.27 19.8C33.59 19.8 33.06 19.25 33.06 18.56L33.06 18.55C33.06 17.86 33.59 17.3 34.27 17.3C34.95 17.3 35.51 17.86 35.51 18.55ZM38.25 10.85C38.25 12.38 37.15 13.31 36.35 13.99C36.04 14.25 35.47 14.72 35.48 14.9C35.48 15.59 34.93 16.14 34.25 16.14L34.24 16.14C33.56 16.14 33 15.6 33 14.92C32.99 13.56 33.97 12.75 34.75 12.08C35.37 11.56 35.78 11.19 35.78 10.85C35.78 10.17 35.23 9.61 34.55 9.61C33.87 9.61 33.32 10.17 33.32 10.85C33.32 11.54 32.77 12.1 32.08 12.1C31.4 12.1 30.84 11.54 30.84 10.85C30.84 8.79 32.51 7.11 34.55 7.11C36.59 7.11 38.25 8.78 38.25 10.85Z" /></svg>